# xmcd
#
# Track frame offsets: 
#        150
#        27294
#        42420
#        65887
#        87292
#        113990
#        133772
#        150900
#        171135
#        201327
#
# Disc length: 3005 seconds
#
# Revision: 1
# Processed by: cddbd v1.5.2PL0 Copyright (c) Steve Scherf et al.
# Submitted via: ExactAudioCopyFreeDBPlugin 1.0
#
DISCID=890bbb0a
DTITLE=Rose Royce - Music Magic
DYEAR=1984
DGENRE=Funk
TTITLE0=Magic Touch
TTITLE1=Holding On To Love
TTITLE2=New Love
TTITLE3=Safe And Warm
TTITLE4=Work It
TTITLE5=Long Distance Love Affair
TTITLE6=You're So Fine
TTITLE7=Show Me
TTITLE8=Donkey Stroke
TTITLE9=Show Me (12 Inch)
EXTD=
EXTT0=
EXTT1=
EXTT2=
EXTT3=
EXTT4=
EXTT5=
EXTT6=
EXTT7=
EXTT8=
EXTT9=
PLAYORDER=
